<svg xmlns="http://www.w3.org/2000/svg" viewBox="0 0 185.95 89.59"><defs><style>.cls-1{fill:#1176bc;}</style></defs><title>Fichier 20</title><g id="Calque_2" data-name="Calque 2"><g id="Calque_1-2" data-name="Calque 1"><path class="cls-1" d="M71.7,50.67c-2.4-4.45-5.26-8.16-6.33-12.34-.6-2.33,1-6.3,2.94-8,8.84-7.89,19.34-9.78,30.76-6.83,1.28.34,2.56.72,3.84,1.06a6.6,6.6,0,0,0,1.42-.31c0-5.3,0-10.85,0-16.41,0-7.19.58-7.76,7.58-7.8C122.73,0,122.73,0,122.73,10.61q0,34.49,0,69c0,7-.85,8.08-7.68,7.73-3.59-.18-7.1-1.68-10.69-2.34a8.54,8.54,0,0,0-3.76.54c-16.87,5-31.08-.67-39.87-16-4.56-7.94-8.83-16.05-13.54-23.9a15.48,15.48,0,0,0-15.71-7.7c-7.13.8-12.44,4.63-14.5,11.91-2,6.9-.24,12.92,5.08,17.66,7.13,6.36,19.16,4.83,24.82-3,1.24-1.7,2.32-3.52,4.11-6.28,3,5.25,5.58,9.59,7.79,14.12.46.93-.26,2.9-1.06,3.91-8,10.12-23,13.77-36.4,9C9.26,81.09.79,69,.06,56.47-.91,40,10.77,27.14,23.78,23.38c15.14-4.38,30.31,2.05,38.3,16.1,4.53,8,8.78,16.07,13.45,23.94,3.81,6.41,9.76,8.79,17.08,7.68,6.73-1,11.17-5,13.43-11.25,2.54-7-.48-15-6.91-19.16s-14.67-3.77-20.29,1.46C76.45,44.38,74.59,47.18,71.7,50.67Z"/><path class="cls-1" d="M128.28,58c0-7.32,0-14.65,0-22,0-6.55,1.64-8.86,7.86-11.14,10-3.7,20.27-5.14,30.86-2.87,11.7,2.52,18.56,10.46,18.79,22.46.24,12.48.14,25,.07,37.45,0,5.61-2.24,7.51-8.16,7.52s-8.27-1.92-8.34-7.42c-.14-10.65,0-21.3-.05-31.95,0-11.08-3-13.9-14-13.44-10.46.44-10.43.44-10.4,10.71,0,10.82,0,21.64-.05,32.45-.08,8.48-5.06,12-12.76,8.45-1.89-.86-3.44-4.39-3.57-6.79-.45-7.8-.17-15.64-.17-23.46Z"/></g></g></svg>