<?xml version="1.0" encoding="utf-8"?>
<!-- Generator: Adobe Illustrator 22.1.0, SVG Export Plug-In . SVG Version: 6.00 Build 0)  -->
<svg version="1.1" id="Calque_1" xmlns="http://www.w3.org/2000/svg" xmlns:xlink="http://www.w3.org/1999/xlink" x="0px" y="0px"
	 viewBox="0 0 595.3 841.9" style="enable-background:new 0 0 595.3 841.9;" xml:space="preserve">
<style type="text/css">
	.st0{fill:#FFFFFF;stroke:#5F5F5F;stroke-width:0.5;}
	.st1{fill:#1176BC;}
</style>
<rect x="60" y="50.6" class="st0" width="461.3" height="273.3"/>
<g>
	<g>
		<g>
			<path class="st1" d="M271.1,182.1c-2.4-4.4-5.3-8.2-6.3-12.3c-0.6-2.3,1-6.3,2.9-8c8.8-7.9,19.3-9.8,30.8-6.8
				c1.3,0.3,2.6,0.7,3.8,1.1c0.1,0,0.3-0.1,1.4-0.3c0-5.3,0-10.9,0-16.4c0-7.2,0.6-7.8,7.6-7.8c10.8-0.1,10.8-0.1,10.8,10.6
				c0,23,0,46,0,69c0,7-0.9,8.1-7.7,7.7c-3.6-0.2-7.1-1.7-10.7-2.3c-1.2-0.2-2.6,0.2-3.8,0.5c-16.9,5-31.1-0.7-39.9-16
				c-4.6-7.9-8.8-16.1-13.5-23.9c-3.5-5.8-9.1-8.4-15.7-7.7c-7.1,0.8-12.4,4.6-14.5,11.9c-2,6.9-0.2,12.9,5.1,17.7
				c7.1,6.4,19.2,4.8,24.8-3c1.2-1.7,2.3-3.5,4.1-6.3c3,5.3,5.6,9.6,7.8,14.1c0.5,0.9-0.3,2.9-1.1,3.9c-8,10.1-23,13.8-36.4,9.1
				c-12-4.2-20.5-16.4-21.2-28.8c-1-16.5,10.7-29.3,23.7-33.1c15.1-4.4,30.3,2.1,38.3,16.1c4.5,8,8.8,16.1,13.5,23.9
				c3.8,6.4,9.8,8.8,17.1,7.7c6.7-1,11.2-5,13.4-11.3c2.5-7-0.5-15-6.9-19.2c-6.6-4.2-14.7-3.8-20.3,1.5
				C275.9,175.9,274,178.7,271.1,182.1z"/>
			<path class="st1" d="M327.7,189.5c0-7.3,0-14.6,0-22c0-6.6,1.6-8.9,7.9-11.1c10-3.7,20.3-5.1,30.9-2.9
				c11.7,2.5,18.6,10.5,18.8,22.5c0.2,12.5,0.1,25,0.1,37.5c0,5.6-2.2,7.5-8.2,7.5c-5.9,0-8.3-1.9-8.3-7.4c-0.1-10.7,0-21.3-0.1-32
				c0-11.1-3-13.9-14-13.4c-10.5,0.4-10.4,0.4-10.4,10.7c0,10.8,0.1,21.6-0.1,32.5c-0.1,8.5-5.1,12-12.8,8.4
				c-1.9-0.9-3.4-4.4-3.6-6.8C327.5,205.1,327.8,197.3,327.7,189.5C327.7,189.5,327.7,189.5,327.7,189.5z"/>
		</g>
	</g>
</g>
</svg>
