<svg xmlns="http://www.w3.org/2000/svg" viewBox="0 0 461.83 273.83"><defs><style>.cls-1{fill:#fff;stroke:#5f5f5f;stroke-width:0.5px;}.cls-2{fill:#1176bc;}</style></defs><title>Fichier 20</title><g id="Calque_2" data-name="Calque 2"><g id="Calque_1-2" data-name="Calque 1"><rect class="cls-1" x="0.25" y="0.25" width="461.33" height="273.33"/><path class="cls-2" d="M211.39,131.84c-2.4-4.45-5.26-8.16-6.33-12.34-.6-2.33,1-6.3,2.94-8,8.84-7.89,19.34-9.78,30.76-6.82,1.28.33,2.56.71,3.84,1a6.85,6.85,0,0,0,1.42-.3c0-5.31,0-10.86,0-16.42,0-7.19.58-7.76,7.58-7.8,10.81-.06,10.81-.06,10.81,10.6q0,34.48,0,69c0,7-.85,8.08-7.68,7.74-3.59-.19-7.1-1.69-10.69-2.35a8.54,8.54,0,0,0-3.76.54c-16.87,5-31.08-.67-39.87-16-4.56-7.94-8.83-16.05-13.54-23.89a15.49,15.49,0,0,0-15.71-7.71c-7.13.81-12.44,4.64-14.5,11.91-2,6.9-.24,12.92,5.08,17.66,7.13,6.36,19.16,4.83,24.82-3,1.24-1.71,2.32-3.53,4.11-6.29,3,5.25,5.58,9.59,7.79,14.12.46.93-.26,2.91-1.06,3.91-8,10.12-23,13.78-36.4,9.05-12-4.22-20.49-16.36-21.22-28.85-1-16.52,10.71-29.33,23.72-33.09,15.14-4.37,30.31,2,38.3,16.1,4.53,8,8.78,16.08,13.45,23.95,3.81,6.4,9.76,8.78,17.08,7.67,6.73-1,11.17-5,13.43-11.25,2.54-7-.48-15-6.91-19.16s-14.67-3.77-20.29,1.47C216.14,125.55,214.28,128.35,211.39,131.84Z"/><path class="cls-2" d="M268,139.14c0-7.32,0-14.64,0-22,0-6.55,1.64-8.85,7.86-11.14,10-3.69,20.27-5.14,30.86-2.86,11.7,2.51,18.56,10.45,18.79,22.46.24,12.48.14,25,.07,37.45,0,5.6-2.24,7.5-8.16,7.52s-8.27-1.93-8.34-7.42c-.14-10.65,0-21.31-.05-32,0-11.08-3-13.9-14.05-13.44-10.46.44-10.43.44-10.4,10.71,0,10.82.05,21.64-.05,32.46-.08,8.47-5.06,12-12.76,8.45-1.89-.87-3.44-4.4-3.57-6.8-.45-7.79-.17-15.63-.17-23.46Z"/></g></g></svg>